<?xml version="1.0" encoding="utf-8"?>
<!-- Generator: Adobe Illustrator 22.1.0, SVG Export Plug-In . SVG Version: 6.00 Build 0)  -->
<svg version="1.1" id="Capa_1" xmlns="http://www.w3.org/2000/svg" xmlns:xlink="http://www.w3.org/1999/xlink" x="0px" y="0px"
	 viewBox="0 0 420 609" style="enable-background:new 0 0 420 609;" xml:space="preserve">
<style type="text/css">
	.st0{fill-rule:evenodd;clip-rule:evenodd;fill:#EFEFEF;}
</style>
<g>
	<g>
		<path class="st0" d="M187.1,0.1c0,81.7,0,163.4,0,245.2c2.2-0.3,3.3-1.7,5.3-2.2c0.2-41.7,0-85.4-0.3-127.6
			c21.5,0.8,41.6-2,57.7,2.8c15.1,4.5,26.9,13.6,35.8,24.4c8.9,10.9,15.6,25.9,15.8,44.4c0.2,19-6.9,32.6-15.8,44.4
			c29.5,8.9,54.4,23.5,74.9,42.4c20.2,18.6,36.8,42.2,48,69.3c11.4,27.5,17.2,65.4,11.9,101.5c-4.8,33.1-17.6,60.9-33.6,83.5
			c-24,33.9-58.2,59.5-102.9,72.9c-15.2,4.6-31.9,7.8-50.8,7.8c-39.5,0-68.6-9-94.3-23c-19.1-10.4-35.2-23-49.9-38
			c-4.8-4.9-9.2-10.4-13-16.1c9.5-6.6,19.1-13.1,28.3-20c8.1,9.2,15.9,18.2,25.2,25.8c9.3,7.6,20.5,13.4,32.2,18.9
			c23.5,11,48.6,18.8,84.6,16.1c31.3-2.4,56.4-10.7,75.4-26.3c8.9-7.3,17.4-16.9,25-26.1c15.6-18.9,28.1-39.1,35.2-66.6
			c3.6-13.9,5.3-30.2,4.4-46c-1.7-32.2-11.5-55.9-25-76.8C348,310,330.5,293.5,309.1,281c-21.5-12.6-46.9-21.8-79.9-21.9
			c-0.5,80.4-0.3,166.7-0.3,249.3c0,2.9,0.5,6.1,0,8c-0.4,1.4-2.3,2.7-3.9,4.2c-9.6,8.8-20.4,17.8-29.7,26.3
			c-0.9,0.2-1.4,2.1-2.2,1.4c0.1-89.4,0-178.6-0.6-267.3c-1.9,0.3-3.2,1.3-5,1.7c-1,1.4-0.6,3.1-0.6,4.7c0,25.1,0.1,52,0,77.4
			c-0.1,25.5-9.1,46.8-20,62.7c-11.2,16.4-26.3,28.9-41.9,40.8C109.7,480.1,92.5,491,73.4,499c0-12.5,0-25,0-37.4
			c1.2-1.5,3.1-2.4,4.7-3.3c11.1-6.7,22.5-13.9,32.7-21.9c17.5-13.7,33.3-29.1,38.5-55.2c1.8-8.9,1.9-18.4,1.9-29.4
			c0-20,0-41.8,0-62.4c-48.1,1.3-80.8-15.6-105.7-38.3c-12.2-11.1-22.8-25.1-30.8-41c-8.1-16.2-13.8-35.1-14.7-57.1
			c-1.5-35.5,8.1-64.4,21.9-86c4.7-7.3,10-13.6,15.8-20C60.2,22.4,92.1,2.1,135.8,0.1C152.6-0.7,169.5,0.7,187.1,0.1z M63.4,72.2
			C47,91.6,34.3,116.5,35.9,152.9c1.5,33.1,16.4,56.3,35.2,72.7c19.2,16.6,44.2,29.2,80.1,28c0-72.6,0-145.1,0-217.7
			C108.9,34,82.1,49.9,63.4,72.2z M229,152c0,24.3,0,48.6,0,72.9c10.7,0.3,19.1-4.3,25.2-10.3c6.2-6,10.8-13.9,11.4-24.4
			c0.8-14.6-6-26.4-15.5-33c-5.4-3.8-12.2-5.8-20.8-6.1C228.9,151.2,228.9,151.6,229,152z"/>
	</g>
</g>
</svg>
